<?xml version="1.0" encoding="UTF-8"?>
<?xml-stylesheet href="https://cdnjs.cloudflare.com/ajax/libs/font-awesome/6.7.2/css/all.min.css" type="text/css"?>
<svg aria-roledescription="flowchart-v2" role="graphics-document document" style="overflow: hidden; max-width: 100%; touch-action: none; user-select: none;" class="flowchart" xmlns="http://www.w3.org/2000/svg" width="100%" id="graph-3251" height="100%" xmlns:xlink="http://www.w3.org/1999/xlink" xmlns:ev="http://www.w3.org/2001/xml-events"><g id="viewport-20250506202914395" class="svg-pan-zoom_viewport" transform="matrix(0.25314760208129883,0,0,0.25314760208129883,147.77703857421875,74.32110595703125)" style="transform: matrix(0.253148, 0, 0, 0.253148, 147.777, 74.3211);"><style>#graph-3251{font-family:"trebuchet ms",verdana,arial,sans-serif;font-size:16px;fill:#333;}@keyframes edge-animation-frame{from{stroke-dashoffset:0;}}@keyframes dash{to{stroke-dashoffset:0;}}#graph-3251 .edge-animation-slow{stroke-dasharray:9,5!important;stroke-dashoffset:900;animation:dash 50s linear infinite;stroke-linecap:round;}#graph-3251 .edge-animation-fast{stroke-dasharray:9,5!important;stroke-dashoffset:900;animation:dash 20s linear infinite;stroke-linecap:round;}#graph-3251 .error-icon{fill:#552222;}#graph-3251 .error-text{fill:#552222;stroke:#552222;}#graph-3251 .edge-thickness-normal{stroke-width:1px;}#graph-3251 .edge-thickness-thick{stroke-width:3.5px;}#graph-3251 .edge-pattern-solid{stroke-dasharray:0;}#graph-3251 .edge-thickness-invisible{stroke-width:0;fill:none;}#graph-3251 .edge-pattern-dashed{stroke-dasharray:3;}#graph-3251 .edge-pattern-dotted{stroke-dasharray:2;}#graph-3251 .marker{fill:#333333;stroke:#333333;}#graph-3251 .marker.cross{stroke:#333333;}#graph-3251 svg{font-family:"trebuchet ms",verdana,arial,sans-serif;font-size:16px;}#graph-3251 p{margin:0;}#graph-3251 .label{font-family:"trebuchet ms",verdana,arial,sans-serif;color:#333;}#graph-3251 .cluster-label text{fill:#333;}#graph-3251 .cluster-label span{color:#333;}#graph-3251 .cluster-label span p{background-color:transparent;}#graph-3251 .label text,#graph-3251 span{fill:#333;color:#333;}#graph-3251 .node rect,#graph-3251 .node circle,#graph-3251 .node ellipse,#graph-3251 .node polygon,#graph-3251 .node path{fill:#ECECFF;stroke:#9370DB;stroke-width:1px;}#graph-3251 .rough-node .label text,#graph-3251 .node .label text,#graph-3251 .image-shape .label,#graph-3251 .icon-shape .label{text-anchor:middle;}#graph-3251 .node .katex path{fill:#000;stroke:#000;stroke-width:1px;}#graph-3251 .rough-node .label,#graph-3251 .node .label,#graph-3251 .image-shape .label,#graph-3251 .icon-shape .label{text-align:center;}#graph-3251 .node.clickable{cursor:pointer;}#graph-3251 .root .anchor path{fill:#333333!important;stroke-width:0;stroke:#333333;}#graph-3251 .arrowheadPath{fill:#333333;}#graph-3251 .edgePath .path{stroke:#333333;stroke-width:2.0px;}#graph-3251 .flowchart-link{stroke:#333333;fill:none;}#graph-3251 .edgeLabel{background-color:rgba(232,232,232, 0.8);text-align:center;}#graph-3251 .edgeLabel p{background-color:rgba(232,232,232, 0.8);}#graph-3251 .edgeLabel rect{opacity:0.5;background-color:rgba(232,232,232, 0.8);fill:rgba(232,232,232, 0.8);}#graph-3251 .labelBkg{background-color:rgba(232, 232, 232, 0.5);}#graph-3251 .cluster rect{fill:#ffffde;stroke:#aaaa33;stroke-width:1px;}#graph-3251 .cluster text{fill:#333;}#graph-3251 .cluster span{color:#333;}#graph-3251 div.mermaidTooltip{position:absolute;text-align:center;max-width:200px;padding:2px;font-family:"trebuchet ms",verdana,arial,sans-serif;font-size:12px;background:hsl(80, 100%, 96.2745098039%);border:1px solid #aaaa33;border-radius:2px;pointer-events:none;z-index:100;}#graph-3251 .flowchartTitleText{text-anchor:middle;font-size:18px;fill:#333;}#graph-3251 rect.text{fill:none;stroke-width:0;}#graph-3251 .icon-shape,#graph-3251 .image-shape{background-color:rgba(232,232,232, 0.8);text-align:center;}#graph-3251 .icon-shape p,#graph-3251 .image-shape p{background-color:rgba(232,232,232, 0.8);padding:2px;}#graph-3251 .icon-shape rect,#graph-3251 .image-shape rect{opacity:0.5;background-color:rgba(232,232,232, 0.8);fill:rgba(232,232,232, 0.8);}#graph-3251 :root{--mermaid-font-family:"trebuchet ms",verdana,arial,sans-serif;}</style><g><marker orient="auto" markerHeight="8" markerWidth="8" markerUnits="userSpaceOnUse" refY="5" refX="5" viewBox="0 0 10 10" class="marker flowchart-v2" id="graph-3251_flowchart-v2-pointEnd"><path style="stroke-width: 1px; stroke-dasharray: 1px, 0px;" class="arrowMarkerPath" d="M 0 0 L 10 5 L 0 10 z"></path></marker><marker orient="auto" markerHeight="8" markerWidth="8" markerUnits="userSpaceOnUse" refY="5" refX="4.5" viewBox="0 0 10 10" class="marker flowchart-v2" id="graph-3251_flowchart-v2-pointStart"><path style="stroke-width: 1px; stroke-dasharray: 1px, 0px;" class="arrowMarkerPath" d="M 0 5 L 10 10 L 10 0 z"></path></marker><marker orient="auto" markerHeight="11" markerWidth="11" markerUnits="userSpaceOnUse" refY="5" refX="11" viewBox="0 0 10 10" class="marker flowchart-v2" id="graph-3251_flowchart-v2-circleEnd"><circle style="stroke-width: 1px; stroke-dasharray: 1px, 0px;" class="arrowMarkerPath" r="5" cy="5" cx="5"></circle></marker><marker orient="auto" markerHeight="11" markerWidth="11" markerUnits="userSpaceOnUse" refY="5" refX="-1" viewBox="0 0 10 10" class="marker flowchart-v2" id="graph-3251_flowchart-v2-circleStart"><circle style="stroke-width: 1px; stroke-dasharray: 1px, 0px;" class="arrowMarkerPath" r="5" cy="5" cx="5"></circle></marker><marker orient="auto" markerHeight="11" markerWidth="11" markerUnits="userSpaceOnUse" refY="5.2" refX="12" viewBox="0 0 11 11" class="marker cross flowchart-v2" id="graph-3251_flowchart-v2-crossEnd"><path style="stroke-width: 2px; stroke-dasharray: 1px, 0px;" class="arrowMarkerPath" d="M 1,1 l 9,9 M 10,1 l -9,9"></path></marker><marker orient="auto" markerHeight="11" markerWidth="11" markerUnits="userSpaceOnUse" refY="5.2" refX="-1" viewBox="0 0 11 11" class="marker cross flowchart-v2" id="graph-3251_flowchart-v2-crossStart"><path style="stroke-width: 2px; stroke-dasharray: 1px, 0px;" class="arrowMarkerPath" d="M 1,1 l 9,9 M 10,1 l -9,9"></path></marker><g class="root"><g class="clusters"></g><g class="edgePaths"></g><g class="edgeLabels"></g><g class="nodes"><g transform="translate(0, 0)" class="root"><g class="clusters"><g data-look="classic" id="Hardware" class="cluster"><rect height="527.4916648864746" width="2437.833351135254" y="8" x="8" style=""></rect><g transform="translate(1192.233341217041, 8)" class="cluster-label"><g><rect style="stroke: none" class="background"></rect><text style="" y="-10.1"><tspan dy="1.1em" y="-0.1em" x="0" class="text-outer-tspan"><tspan font-weight="normal" class="text-inner-tspan" font-style="normal">Hardware</tspan></tspan></text></g></g></g></g><g class="edgePaths"><path marker-end="url(#graph-3251_flowchart-v2-pointEnd)" style="" class="edge-thickness-normal edge-pattern-solid edge-thickness-normal edge-pattern-solid flowchart-link" id="L_utente_input_0" d="M101.171,393.117L111,379.317C120.83,365.517,140.49,337.917,155.903,324.117C171.317,310.317,182.483,310.317,188.067,310.317L193.65,310.317"></path><path marker-end="url(#graph-3251_flowchart-v2-pointEnd)" style="" class="edge-thickness-normal edge-pattern-solid edge-thickness-normal edge-pattern-solid flowchart-link" id="L_input_terminale_0" d="M366.55,310.317L372.8,310.317C379.05,310.317,391.55,310.317,403.383,310.317C415.217,310.317,426.383,310.317,431.967,310.317L437.55,310.317"></path><path marker-end="url(#graph-3251_flowchart-v2-pointEnd)" style="" class="edge-thickness-normal edge-pattern-solid edge-thickness-normal edge-pattern-solid flowchart-link" id="L_terminale_ppi_0" d="M523.691,286.317L539.734,253.383C555.778,220.45,587.864,154.583,620.518,143.264C653.173,131.946,686.395,175.175,703.007,196.789L719.618,218.403"></path><path marker-end="url(#graph-3251_flowchart-v2-pointEnd)" style="" class="edge-thickness-normal edge-pattern-solid edge-thickness-normal edge-pattern-solid flowchart-link" id="L_ppi_terminale_0" d="M712.517,269.575L697.089,282.807C681.661,296.039,650.806,322.503,629.186,333.518C607.566,344.533,595.182,340.099,588.99,337.882L582.798,335.665"></path><path marker-end="url(#graph-3251_flowchart-v2-pointEnd)" style="" class="edge-thickness-normal edge-pattern-solid edge-thickness-normal edge-pattern-solid flowchart-link" id="L_terminale_output_0" d="M549.157,334.317L560.956,341.937C572.755,349.558,596.352,364.8,618.29,377.312C640.228,389.823,660.506,399.605,670.645,404.496L680.784,409.387"></path><path marker-end="url(#graph-3251_flowchart-v2-pointEnd)" style="" class="edge-thickness-normal edge-pattern-solid edge-thickness-normal edge-pattern-solid flowchart-link" id="L_output_utente_0" d="M681.175,457.212L670.97,460.484C660.766,463.755,640.358,470.299,612.162,473.57C583.967,476.842,547.983,476.842,512,476.842C476.017,476.842,440.033,476.842,401.717,476.842C363.4,476.842,322.75,476.842,282.1,476.842C241.45,476.842,200.8,476.842,173.415,471.299C146.03,465.757,131.911,454.672,124.851,449.129L117.791,443.587"></path><path marker-end="url(#graph-3251_flowchart-v2-pointEnd)" style="" class="edge-thickness-normal edge-pattern-solid edge-thickness-normal edge-pattern-solid flowchart-link" id="L_ppi_pic_0" d="M770.593,221.575L785.669,209.551C800.745,197.528,830.898,173.481,851.557,161.457C872.217,149.433,883.383,149.433,888.967,149.433L894.55,149.433"></path><path marker-end="url(#graph-3251_flowchart-v2-pointEnd)" style="" class="edge-thickness-normal edge-pattern-solid edge-thickness-normal edge-pattern-solid flowchart-link" id="L_pic_interruzione_0" d="M1068.2,149.433L1074.45,149.433C1080.7,149.433,1093.2,149.433,1105.033,149.433C1116.867,149.433,1128.033,149.433,1133.617,149.433L1139.2,149.433"></path><path marker-end="url(#graph-3251_flowchart-v2-pointEnd)" style="" class="edge-thickness-normal edge-pattern-solid edge-thickness-normal edge-pattern-solid flowchart-link" id="L_interruzione_cpu_0" d="M1356.067,149.433L1362.317,149.433C1368.567,149.433,1381.067,149.433,1400.803,159.589C1420.539,169.745,1447.511,190.057,1460.997,200.213L1474.483,210.369"></path><path marker-end="url(#graph-3251_flowchart-v2-pointEnd)" marker-start="url(#graph-3251_flowchart-v2-pointStart)" style="" class="edge-thickness-normal edge-pattern-solid edge-thickness-normal edge-pattern-solid flowchart-link" id="L_cpu_mmu_0" d="M1615.4,245.575L1620.983,245.575C1626.567,245.575,1637.733,245.575,1648.9,245.575C1660.067,245.575,1671.233,245.575,1676.817,245.575L1682.4,245.575"></path><path marker-end="url(#graph-3251_flowchart-v2-pointEnd)" style="" class="edge-thickness-normal edge-pattern-solid edge-thickness-normal edge-pattern-solid flowchart-link" id="L_cpu_ppi_0" d="M1495.562,278.375L1478.563,300.094C1461.563,321.814,1427.565,365.253,1386.577,386.972C1345.589,408.692,1297.611,408.692,1249.633,408.692C1201.656,408.692,1153.678,408.692,1109.301,408.692C1064.925,408.692,1024.15,408.692,983.375,408.692C942.6,408.692,901.825,408.692,864.698,386.042C827.571,363.392,794.093,318.092,777.354,295.442L760.614,272.792"></path><path marker-end="url(#graph-3251_flowchart-v2-pointEnd)" style="" class="edge-thickness-normal edge-pattern-solid edge-thickness-normal edge-pattern-solid flowchart-link" id="L_mmu_lettura_0" d="M1819.956,212.775L1835.221,200.172C1850.487,187.569,1881.019,162.364,1902.904,149.761C1924.789,137.158,1938.028,137.158,1944.647,137.158L1951.267,137.158"></path><path marker-end="url(#graph-3251_flowchart-v2-pointEnd)" style="" class="edge-thickness-normal edge-pattern-solid edge-thickness-normal edge-pattern-solid flowchart-link" id="L_mmu_scrittura_0" d="M1818.834,278.375L1834.287,291.503C1849.739,304.631,1880.645,330.886,1901.681,344.014C1922.717,357.142,1933.883,357.142,1939.467,357.142L1945.05,357.142"></path><path marker-end="url(#graph-3251_flowchart-v2-pointEnd)" style="" class="edge-thickness-normal edge-pattern-solid edge-thickness-normal edge-pattern-solid flowchart-link" id="L_lettura_ram_0" d="M2119.033,137.158L2126.319,137.158C2133.606,137.158,2148.178,137.158,2168.186,142.124C2188.194,147.09,2213.638,157.022,2226.359,161.988L2239.081,166.954"></path><path marker-end="url(#graph-3251_flowchart-v2-pointEnd)" style="" class="edge-thickness-normal edge-pattern-solid edge-thickness-normal edge-pattern-solid flowchart-link" id="L_lettura_rom_0" d="M2068.68,212.728L2084.358,250.305C2100.037,287.882,2131.393,363.037,2152.655,400.614C2173.917,438.192,2185.083,438.192,2190.667,438.192L2196.25,438.192"></path><path marker-end="url(#graph-3251_flowchart-v2-pointEnd)" style="" class="edge-thickness-normal edge-pattern-solid edge-thickness-normal edge-pattern-solid flowchart-link" id="L_scrittura_ram_0" d="M2125.25,357.142L2131.5,357.142C2137.75,357.142,2150.25,357.142,2176.219,334.192C2202.188,311.242,2241.626,265.342,2261.345,242.392L2281.064,219.442"></path></g><g class="edgeLabels"><g><rect style="stroke: none" class="background"></rect></g><g><rect style="stroke: none" class="background"></rect></g><g><rect style="stroke: none" class="background"></rect></g><g><rect style="stroke: none" class="background"></rect></g><g><rect style="stroke: none" class="background"></rect></g><g><rect style="stroke: none" class="background"></rect></g><g><rect style="stroke: none" class="background"></rect></g><g><rect style="stroke: none" class="background"></rect></g><g><rect style="stroke: none" class="background"></rect></g><g><rect style="stroke: none" class="background"></rect></g><g><rect style="stroke: none" class="background"></rect></g><g><rect style="stroke: none" class="background"></rect></g><g><rect style="stroke: none" class="background"></rect></g><g><rect style="stroke: none" class="background"></rect></g><g><rect style="stroke: none" class="background"></rect></g><g><rect style="stroke: none" class="background"></rect></g><g class="edgeLabel"><g transform="translate(0, 0)" class="label"><text y="-10.1"><tspan dy="1.1em" y="-0.1em" x="0" class="text-outer-tspan"></tspan></text></g></g><g class="edgeLabel"><g transform="translate(0, 0)" class="label"><text y="-10.1"><tspan dy="1.1em" y="-0.1em" x="0" class="text-outer-tspan"></tspan></text></g></g><g class="edgeLabel"><g transform="translate(0, 0)" class="label"><text y="-10.1"><tspan dy="1.1em" y="-0.1em" x="0" class="text-outer-tspan"></tspan></text></g></g><g class="edgeLabel"><g transform="translate(0, 0)" class="label"><text y="-10.1"><tspan dy="1.1em" y="-0.1em" x="0" class="text-outer-tspan"></tspan></text></g></g><g class="edgeLabel"><g transform="translate(0, 0)" class="label"><text y="-10.1"><tspan dy="1.1em" y="-0.1em" x="0" class="text-outer-tspan"></tspan></text></g></g><g class="edgeLabel"><g transform="translate(0, 0)" class="label"><text y="-10.1"><tspan dy="1.1em" y="-0.1em" x="0" class="text-outer-tspan"></tspan></text></g></g><g class="edgeLabel"><g transform="translate(0, 0)" class="label"><text y="-10.1"><tspan dy="1.1em" y="-0.1em" x="0" class="text-outer-tspan"></tspan></text></g></g><g class="edgeLabel"><g transform="translate(0, 0)" class="label"><text y="-10.1"><tspan dy="1.1em" y="-0.1em" x="0" class="text-outer-tspan"></tspan></text></g></g><g class="edgeLabel"><g transform="translate(0, 0)" class="label"><text y="-10.1"><tspan dy="1.1em" y="-0.1em" x="0" class="text-outer-tspan"></tspan></text></g></g><g class="edgeLabel"><g transform="translate(0, 0)" class="label"><text y="-10.1"><tspan dy="1.1em" y="-0.1em" x="0" class="text-outer-tspan"></tspan></text></g></g><g class="edgeLabel"><g transform="translate(0, 0)" class="label"><text y="-10.1"><tspan dy="1.1em" y="-0.1em" x="0" class="text-outer-tspan"></tspan></text></g></g><g class="edgeLabel"><g transform="translate(0, 0)" class="label"><text y="-10.1"><tspan dy="1.1em" y="-0.1em" x="0" class="text-outer-tspan"></tspan></text></g></g><g class="edgeLabel"><g transform="translate(0, 0)" class="label"><text y="-10.1"><tspan dy="1.1em" y="-0.1em" x="0" class="text-outer-tspan"></tspan></text></g></g><g class="edgeLabel"><g transform="translate(0, 0)" class="label"><text y="-10.1"><tspan dy="1.1em" y="-0.1em" x="0" class="text-outer-tspan"></tspan></text></g></g><g class="edgeLabel"><g transform="translate(0, 0)" class="label"><text y="-10.1"><tspan dy="1.1em" y="-0.1em" x="0" class="text-outer-tspan"></tspan></text></g></g><g class="edgeLabel"><g transform="translate(0, 0)" class="label"><text y="-10.1"><tspan dy="1.1em" y="-0.1em" x="0" class="text-outer-tspan"></tspan></text></g></g></g><g class="nodes"><g transform="translate(84.07500076293945, 417.1166648864746)" id="flowchart-utente-0" class="node default"><rect height="48" width="77.1500015258789" y="-24" x="-38.57500076293945" ry="5" rx="5" style="" class="basic label-container"></rect><g transform="translate(0, -9)" style="" class="label"><rect></rect><g><rect style="stroke: none" class="background"></rect><text style="" y="-10.1"><tspan dy="1.1em" y="-0.1em" x="0" class="text-outer-tspan"><tspan font-weight="normal" class="text-inner-tspan" font-style="normal">Utente</tspan></tspan></text></g></g></g><g transform="translate(282.0999984741211, 310.3166618347168)" id="flowchart-input-3" class="node default"><circle cy="0" cx="0" r="84.44999694824219" style="" class="basic label-container"></circle><g transform="translate(0, -9)" style="" class="label"><rect></rect><g><rect style="stroke: none" class="background"></rect><text style="" y="-10.1"><tspan dy="1.1em" y="-0.1em" x="0" class="text-outer-tspan"><tspan font-weight="normal" class="text-inner-tspan" font-style="normal">Inserimento</tspan><tspan font-weight="normal" class="text-inner-tspan" font-style="normal"> comando</tspan></tspan></text></g></g></g><g transform="translate(512, 310.3166618347168)" id="flowchart-terminale-1" class="node default"><rect height="48" width="140.90000915527344" y="-24" x="-70.45000457763672" ry="5" rx="5" style="" class="basic label-container"></rect><g transform="translate(0, -9)" style="" class="label"><rect></rect><g><rect style="stroke: none" class="background"></rect><text style="" y="-10.1"><tspan dy="1.1em" y="-0.1em" x="0" class="text-outer-tspan"><tspan font-weight="normal" class="text-inner-tspan" font-style="normal">Video</tspan><tspan font-weight="normal" class="text-inner-tspan" font-style="normal"> terminale</tspan></tspan></text></g></g></g><g transform="translate(740.5000076293945, 245.57500076293945)" id="flowchart-ppi-2" class="node default"><rect height="48" width="166.10000610351562" y="-24" x="-83.05000305175781" ry="5" rx="5" style="" class="basic label-container"></rect><g transform="translate(0, -9)" style="" class="label"><rect></rect><g><rect style="stroke: none" class="background"></rect><text style="" y="-10.1"><tspan dy="1.1em" y="-0.1em" x="0" class="text-outer-tspan"><tspan font-weight="normal" class="text-inner-tspan" font-style="normal">Gestore</tspan><tspan font-weight="normal" class="text-inner-tspan" font-style="normal"> periferiche</tspan></tspan></text></g></g></g><g transform="translate(740.5000076293945, 438.1916618347168)" id="flowchart-output-4" class="node default"><circle cy="0" cx="0" r="62.30000305175781" style="" class="basic label-container"></circle><g transform="translate(0, -9)" style="" class="label"><rect></rect><g><rect style="stroke: none" class="background"></rect><text style="" y="-10.1"><tspan dy="1.1em" y="-0.1em" x="0" class="text-outer-tspan"><tspan font-weight="normal" class="text-inner-tspan" font-style="normal">Mostra</tspan><tspan font-weight="normal" class="text-inner-tspan" font-style="normal"> risposta</tspan></tspan></text></g></g></g><g transform="translate(983.3750076293945, 149.43333435058594)" id="flowchart-pic-13" class="node default"><rect height="48" width="169.64999389648438" y="-24" x="-84.82499694824219" ry="5" rx="5" style="" class="basic label-container"></rect><g transform="translate(0, -9)" style="" class="label"><rect></rect><g><rect style="stroke: none" class="background"></rect><text style="" y="-10.1"><tspan dy="1.1em" y="-0.1em" x="0" class="text-outer-tspan"><tspan font-weight="normal" class="text-inner-tspan" font-style="normal">Gestore</tspan><tspan font-weight="normal" class="text-inner-tspan" font-style="normal"> interruzioni</tspan></tspan></text></g></g></g><g transform="translate(1249.6333389282227, 149.43333435058594)" id="flowchart-interruzione-22" class="node default"><circle cy="0" cx="0" r="106.43333435058594" style="" class="basic label-container"></circle><g transform="translate(0, -9)" style="" class="label"><rect></rect><g><rect style="stroke: none" class="background"></rect><text style="" y="-10.1"><tspan dy="1.1em" y="-0.1em" x="0" class="text-outer-tspan"><tspan font-weight="normal" class="text-inner-tspan" font-style="normal">Interruzione</tspan><tspan font-weight="normal" class="text-inner-tspan" font-style="normal"> dell'esecuzione</tspan></tspan></text></g></g></g><g transform="translate(1521.2333450317383, 245.57500076293945)" id="flowchart-cpu-14" class="node default"><rect height="65.5999984741211" width="180.33334350585938" y="-32.79999923706055" x="-90.16667175292969" ry="5" rx="5" style="" class="basic label-container"></rect><g transform="translate(0, -17.799999237060547)" style="" class="label"><rect></rect><g><rect style="stroke: none" class="background"></rect><text style="" y="-10.1"><tspan dy="1.1em" y="-0.1em" x="0" class="text-outer-tspan"><tspan font-weight="normal" class="text-inner-tspan" font-style="normal">Unità</tspan><tspan font-weight="normal" class="text-inner-tspan" font-style="normal"> di</tspan><tspan font-weight="normal" class="text-inner-tspan" font-style="normal"> elaborazione</tspan></tspan><tspan dy="1.1em" y="1em" x="0" class="text-outer-tspan"><tspan font-weight="normal" class="text-inner-tspan" font-style="normal">centrale</tspan></tspan></text></g></g></g><g transform="translate(1780.2250137329102, 245.57500076293945)" id="flowchart-mmu-15" class="node default"><rect height="65.5999984741211" width="187.64999389648438" y="-32.79999923706055" x="-93.82499694824219" ry="5" rx="5" style="" class="basic label-container"></rect><g transform="translate(0, -17.799999237060547)" style="" class="label"><rect></rect><g><rect style="stroke: none" class="background"></rect><text style="" y="-10.1"><tspan dy="1.1em" y="-0.1em" x="0" class="text-outer-tspan"><tspan font-weight="normal" class="text-inner-tspan" font-style="normal">Unità</tspan><tspan font-weight="normal" class="text-inner-tspan" font-style="normal"> di</tspan><tspan font-weight="normal" class="text-inner-tspan" font-style="normal"> gestione</tspan><tspan font-weight="normal" class="text-inner-tspan" font-style="normal"> della</tspan></tspan><tspan dy="1.1em" y="1em" x="0" class="text-outer-tspan"><tspan font-weight="normal" class="text-inner-tspan" font-style="normal">memoria</tspan></tspan></text></g></g></g><g transform="translate(2037.1500091552734, 137.15833282470703)" id="flowchart-lettura-20" class="node default"><circle cy="0" cx="0" r="81.88333129882812" style="" class="basic label-container"></circle><g transform="translate(0, -9)" style="" class="label"><rect></rect><g><rect style="stroke: none" class="background"></rect><text style="" y="-10.1"><tspan dy="1.1em" y="-0.1em" x="0" class="text-outer-tspan"><tspan font-weight="normal" class="text-inner-tspan" font-style="normal">Operazione</tspan><tspan font-weight="normal" class="text-inner-tspan" font-style="normal"> di</tspan><tspan font-weight="normal" class="text-inner-tspan" font-style="normal"> lettura</tspan></tspan></text></g></g></g><g transform="translate(2037.1500091552734, 357.14166259765625)" id="flowchart-scrittura-21" class="node default"><circle cy="0" cx="0" r="88.0999984741211" style="" class="basic label-container"></circle><g transform="translate(0, -9)" style="" class="label"><rect></rect><g><rect style="stroke: none" class="background"></rect><text style="" y="-10.1"><tspan dy="1.1em" y="-0.1em" x="0" class="text-outer-tspan"><tspan font-weight="normal" class="text-inner-tspan" font-style="normal">Operazione</tspan><tspan font-weight="normal" class="text-inner-tspan" font-style="normal"> di</tspan><tspan font-weight="normal" class="text-inner-tspan" font-style="normal"> scrittura</tspan></tspan></text></g></g></g><g transform="translate(2304.291679382324, 192.4083366394043)" id="flowchart-ram-16" class="node default"><g style="" class="basic label-container"><path style="" fill-rule="evenodd" fill="#ECECFF" stroke-width="0" stroke="none" d="M-88.375 -24 L96.375 -24 L96.375 24 L-96.375 24 L-96.375 -24 L-88.375 -24 L-88.375 24"></path><path style="" fill="none" stroke-width="1.3" stroke="#9370DB" d="M-88.375 -24 C-40.17903922503075 -24, 8.016921549938502 -24, 96.375 -24 M-88.375 -24 C-17.03942243769592 -24, 54.29615512460816 -24, 96.375 -24 M96.375 -24 C96.375 -6.954597744986678, 96.375 10.090804510026643, 96.375 24 M96.375 -24 C96.375 -8.374606534682155, 96.375 7.250786930635691, 96.375 24 M96.375 24 C43.27017291534284 24, -9.83465416931432 24, -96.375 24 M96.375 24 C26.69102311957174 24, -42.99295376085652 24, -96.375 24 M-96.375 24 C-96.375 11.383228973117584, -96.375 -1.2335420537648325, -96.375 -24 M-96.375 24 C-96.375 12.276774090303967, -96.375 0.5535481806079332, -96.375 -24 M-96.375 -24 C-94.65728446312036 -24, -92.93956892624072 -24, -88.375 -24 M-96.375 -24 C-94.66674953889468 -24, -92.95849907778936 -24, -88.375 -24 M-88.375 -24 C-88.375 -6.275591949942331, -88.375 11.448816100115337, -88.375 24 M-88.375 -24 C-88.375 -12.923518637083086, -88.375 -1.8470372741661727, -88.375 24 M-88.375 24 C-88.375 13.520820837237649, -88.375 3.041641674475297, -88.375 -24 M-88.375 24 C-88.375 8.605681574612401, -88.375 -6.788636850775198, -88.375 -24"></path></g><g transform="translate(4,-10.500000357627869)" style="" class="label"><rect></rect><g><rect style="stroke: none" class="background"></rect><text style="" y="-10.1"><tspan dy="1.1em" y="-0.1em" x="0" class="text-outer-tspan"><tspan font-weight="normal" class="text-inner-tspan" font-style="normal">Memoria</tspan><tspan font-weight="normal" class="text-inner-tspan" font-style="normal"> dati</tspan><tspan font-weight="normal" class="text-inner-tspan" font-style="normal"> volatile</tspan></tspan></text></g></g></g><g transform="translate(2304.291679382324, 438.1916618347168)" id="flowchart-rom-18" class="node default"><g style="" class="basic label-container"><path style="" fill-rule="evenodd" fill="#ECECFF" stroke-width="0" stroke="none" d="M-96.04167175292969 -24 L104.04167175292969 -24 L104.04167175292969 24 L-104.04167175292969 24 L-104.04167175292969 -24 L-96.04167175292969 -24 L-96.04167175292969 24"></path><path style="" fill="none" stroke-width="1.3" stroke="#9370DB" d="M-96.04167175292969 -24 C-28.757114320072105 -24, 38.52744311278548 -24, 104.04167175292969 -24 M-96.04167175292969 -24 C-18.866086229292122 -24, 58.30949929434544 -24, 104.04167175292969 -24 M104.04167175292969 -24 C104.04167175292969 -6.36773985471547, 104.04167175292969 11.26452029056906, 104.04167175292969 24 M104.04167175292969 -24 C104.04167175292969 -8.80219022512653, 104.04167175292969 6.3956195497469395, 104.04167175292969 24 M104.04167175292969 24 C62.29644910566195 24, 20.55122645839421 24, -104.04167175292969 24 M104.04167175292969 24 C51.37258928226184 24, -1.2964931884060036 24, -104.04167175292969 24 M-104.04167175292969 24 C-104.04167175292969 9.744664465835669, -104.04167175292969 -4.510671068328662, -104.04167175292969 -24 M-104.04167175292969 24 C-104.04167175292969 5.756177947629851, -104.04167175292969 -12.487644104740298, -104.04167175292969 -24 M-104.04167175292969 -24 C-101.02645239216115 -24, -98.0112330313926 -24, -96.04167175292969 -24 M-104.04167175292969 -24 C-100.8897939040009 -24, -97.73791605507209 -24, -96.04167175292969 -24 M-96.04167175292969 -24 C-96.04167175292969 -14.16175271518717, -96.04167175292969 -4.32350543037434, -96.04167175292969 24 M-96.04167175292969 -24 C-96.04167175292969 -11.105765214892866, -96.04167175292969 1.788469570214268, -96.04167175292969 24 M-96.04167175292969 24 C-96.04167175292969 5.39358919516437, -96.04167175292969 -13.21282160967126, -96.04167175292969 -24 M-96.04167175292969 24 C-96.04167175292969 11.581013727279894, -96.04167175292969 -0.8379725454402127, -96.04167175292969 -24"></path></g><g transform="translate(3.899993896484375,-10.500000357627869)" style="" class="label"><rect></rect><g><rect style="stroke: none" class="background"></rect><text style="" y="-10.1"><tspan dy="1.1em" y="-0.1em" x="0" class="text-outer-tspan"><tspan font-weight="normal" class="text-inner-tspan" font-style="normal">Memoria</tspan><tspan font-weight="normal" class="text-inner-tspan" font-style="normal"> di</tspan><tspan font-weight="normal" class="text-inner-tspan" font-style="normal"> sola</tspan><tspan font-weight="normal" class="text-inner-tspan" font-style="normal"> lettura</tspan></tspan></text></g></g></g></g></g></g></g></g></g></svg>