<?xml version="1.0" encoding="UTF-8"?>
<?xml-stylesheet href="https://cdnjs.cloudflare.com/ajax/libs/font-awesome/6.7.2/css/all.min.css" type="text/css"?>
<svg aria-roledescription="flowchart-v2" role="graphics-document document" style="overflow: hidden; max-width: 100%; touch-action: none; user-select: none;" class="flowchart" xmlns="http://www.w3.org/2000/svg" width="100%" id="graph-2712" height="100%" xmlns:xlink="http://www.w3.org/1999/xlink" xmlns:ev="http://www.w3.org/2001/xml-events"><g id="viewport-20250506202819148" class="svg-pan-zoom_viewport" transform="matrix(0.38351672887802124,0,0,0.38351672887802124,88.77700805664062,104.32110595703125)" style="transform: matrix(0.383517, 0, 0, 0.383517, 88.777, 104.321);"><style>#graph-2712{font-family:"trebuchet ms",verdana,arial,sans-serif;font-size:16px;fill:#333;}@keyframes edge-animation-frame{from{stroke-dashoffset:0;}}@keyframes dash{to{stroke-dashoffset:0;}}#graph-2712 .edge-animation-slow{stroke-dasharray:9,5!important;stroke-dashoffset:900;animation:dash 50s linear infinite;stroke-linecap:round;}#graph-2712 .edge-animation-fast{stroke-dasharray:9,5!important;stroke-dashoffset:900;animation:dash 20s linear infinite;stroke-linecap:round;}#graph-2712 .error-icon{fill:#552222;}#graph-2712 .error-text{fill:#552222;stroke:#552222;}#graph-2712 .edge-thickness-normal{stroke-width:1px;}#graph-2712 .edge-thickness-thick{stroke-width:3.5px;}#graph-2712 .edge-pattern-solid{stroke-dasharray:0;}#graph-2712 .edge-thickness-invisible{stroke-width:0;fill:none;}#graph-2712 .edge-pattern-dashed{stroke-dasharray:3;}#graph-2712 .edge-pattern-dotted{stroke-dasharray:2;}#graph-2712 .marker{fill:#333333;stroke:#333333;}#graph-2712 .marker.cross{stroke:#333333;}#graph-2712 svg{font-family:"trebuchet ms",verdana,arial,sans-serif;font-size:16px;}#graph-2712 p{margin:0;}#graph-2712 .label{font-family:"trebuchet ms",verdana,arial,sans-serif;color:#333;}#graph-2712 .cluster-label text{fill:#333;}#graph-2712 .cluster-label span{color:#333;}#graph-2712 .cluster-label span p{background-color:transparent;}#graph-2712 .label text,#graph-2712 span{fill:#333;color:#333;}#graph-2712 .node rect,#graph-2712 .node circle,#graph-2712 .node ellipse,#graph-2712 .node polygon,#graph-2712 .node path{fill:#ECECFF;stroke:#9370DB;stroke-width:1px;}#graph-2712 .rough-node .label text,#graph-2712 .node .label text,#graph-2712 .image-shape .label,#graph-2712 .icon-shape .label{text-anchor:middle;}#graph-2712 .node .katex path{fill:#000;stroke:#000;stroke-width:1px;}#graph-2712 .rough-node .label,#graph-2712 .node .label,#graph-2712 .image-shape .label,#graph-2712 .icon-shape .label{text-align:center;}#graph-2712 .node.clickable{cursor:pointer;}#graph-2712 .root .anchor path{fill:#333333!important;stroke-width:0;stroke:#333333;}#graph-2712 .arrowheadPath{fill:#333333;}#graph-2712 .edgePath .path{stroke:#333333;stroke-width:2.0px;}#graph-2712 .flowchart-link{stroke:#333333;fill:none;}#graph-2712 .edgeLabel{background-color:rgba(232,232,232, 0.8);text-align:center;}#graph-2712 .edgeLabel p{background-color:rgba(232,232,232, 0.8);}#graph-2712 .edgeLabel rect{opacity:0.5;background-color:rgba(232,232,232, 0.8);fill:rgba(232,232,232, 0.8);}#graph-2712 .labelBkg{background-color:rgba(232, 232, 232, 0.5);}#graph-2712 .cluster rect{fill:#ffffde;stroke:#aaaa33;stroke-width:1px;}#graph-2712 .cluster text{fill:#333;}#graph-2712 .cluster span{color:#333;}#graph-2712 div.mermaidTooltip{position:absolute;text-align:center;max-width:200px;padding:2px;font-family:"trebuchet ms",verdana,arial,sans-serif;font-size:12px;background:hsl(80, 100%, 96.2745098039%);border:1px solid #aaaa33;border-radius:2px;pointer-events:none;z-index:100;}#graph-2712 .flowchartTitleText{text-anchor:middle;font-size:18px;fill:#333;}#graph-2712 rect.text{fill:none;stroke-width:0;}#graph-2712 .icon-shape,#graph-2712 .image-shape{background-color:rgba(232,232,232, 0.8);text-align:center;}#graph-2712 .icon-shape p,#graph-2712 .image-shape p{background-color:rgba(232,232,232, 0.8);padding:2px;}#graph-2712 .icon-shape rect,#graph-2712 .image-shape rect{opacity:0.5;background-color:rgba(232,232,232, 0.8);fill:rgba(232,232,232, 0.8);}#graph-2712 :root{--mermaid-font-family:"trebuchet ms",verdana,arial,sans-serif;}</style><g><marker orient="auto" markerHeight="8" markerWidth="8" markerUnits="userSpaceOnUse" refY="5" refX="5" viewBox="0 0 10 10" class="marker flowchart-v2" id="graph-2712_flowchart-v2-pointEnd"><path style="stroke-width: 1px; stroke-dasharray: 1px, 0px;" class="arrowMarkerPath" d="M 0 0 L 10 5 L 0 10 z"></path></marker><marker orient="auto" markerHeight="8" markerWidth="8" markerUnits="userSpaceOnUse" refY="5" refX="4.5" viewBox="0 0 10 10" class="marker flowchart-v2" id="graph-2712_flowchart-v2-pointStart"><path style="stroke-width: 1px; stroke-dasharray: 1px, 0px;" class="arrowMarkerPath" d="M 0 5 L 10 10 L 10 0 z"></path></marker><marker orient="auto" markerHeight="11" markerWidth="11" markerUnits="userSpaceOnUse" refY="5" refX="11" viewBox="0 0 10 10" class="marker flowchart-v2" id="graph-2712_flowchart-v2-circleEnd"><circle style="stroke-width: 1px; stroke-dasharray: 1px, 0px;" class="arrowMarkerPath" r="5" cy="5" cx="5"></circle></marker><marker orient="auto" markerHeight="11" markerWidth="11" markerUnits="userSpaceOnUse" refY="5" refX="-1" viewBox="0 0 10 10" class="marker flowchart-v2" id="graph-2712_flowchart-v2-circleStart"><circle style="stroke-width: 1px; stroke-dasharray: 1px, 0px;" class="arrowMarkerPath" r="5" cy="5" cx="5"></circle></marker><marker orient="auto" markerHeight="11" markerWidth="11" markerUnits="userSpaceOnUse" refY="5.2" refX="12" viewBox="0 0 11 11" class="marker cross flowchart-v2" id="graph-2712_flowchart-v2-crossEnd"><path style="stroke-width: 2px; stroke-dasharray: 1px, 0px;" class="arrowMarkerPath" d="M 1,1 l 9,9 M 10,1 l -9,9"></path></marker><marker orient="auto" markerHeight="11" markerWidth="11" markerUnits="userSpaceOnUse" refY="5.2" refX="-1" viewBox="0 0 11 11" class="marker cross flowchart-v2" id="graph-2712_flowchart-v2-crossStart"><path style="stroke-width: 2px; stroke-dasharray: 1px, 0px;" class="arrowMarkerPath" d="M 1,1 l 9,9 M 10,1 l -9,9"></path></marker><g class="root"><g class="clusters"><g data-look="classic" id="subGraph1" class="cluster"><rect height="262.0500030517578" width="521.4166717529297" y="8" x="745.8666610717773" style=""></rect><g transform="translate(957.6416625976562, 8)" class="cluster-label"><g><rect style="stroke: none" class="background"></rect><text style="" y="-10.1"><tspan dy="1.1em" y="-0.1em" x="0" class="text-outer-tspan"><tspan font-weight="normal" class="text-inner-tspan" font-style="normal">Spazio</tspan><tspan font-weight="normal" class="text-inner-tspan" font-style="normal"> utente</tspan></tspan></text></g></g></g><g data-look="classic" id="subGraph0" class="cluster"><rect height="780.7916679382324" width="1603.6999969482422" y="290.0500030517578" x="8" style=""></rect><g transform="translate(744.9249954223633, 290.0500030517578)" class="cluster-label"><g><rect style="stroke: none" class="background"></rect><text style="" y="-10.1"><tspan dy="1.1em" y="-0.1em" x="0" class="text-outer-tspan"><tspan font-weight="normal" class="text-inner-tspan" font-style="normal">Spazio</tspan><tspan font-weight="normal" class="text-inner-tspan" font-style="normal"> privilegiato</tspan></tspan></text></g></g></g></g><g class="edgePaths"><path marker-end="url(#graph-2712_flowchart-v2-pointEnd)" style="" class="edge-thickness-normal edge-pattern-solid edge-thickness-normal edge-pattern-solid flowchart-link" id="L_chiamata_interrupt_isr_0" d="M1464.033,674.992L1468.2,674.992C1472.367,674.992,1480.7,674.992,1493.773,706.413C1506.847,737.835,1524.66,800.679,1533.566,832.101L1542.473,863.522"></path><path marker-end="url(#graph-2712_flowchart-v2-pointEnd)" style="" class="edge-thickness-normal edge-pattern-solid edge-thickness-normal edge-pattern-solid flowchart-link" id="L_bios_post_0" d="M90.563,625.021L96.508,618.935C102.453,612.85,114.343,600.679,134.258,594.594C154.172,588.508,182.111,588.508,196.081,588.508L210.05,588.508"></path><path marker-end="url(#graph-2712_flowchart-v2-pointEnd)" style="" class="edge-thickness-normal edge-pattern-solid edge-thickness-normal edge-pattern-solid flowchart-link" id="L_bios_memcheck_0" d="M73.235,625.021L82.068,590.374C90.901,555.728,108.567,486.435,120.9,451.788C133.233,417.142,140.233,417.142,143.733,417.142L147.233,417.142"></path><path marker-end="url(#graph-2712_flowchart-v2-pointEnd)" style="" class="edge-thickness-normal edge-pattern-solid edge-thickness-normal edge-pattern-solid flowchart-link" id="L_bios_gestione_interrupt_0" d="M71.901,673.021L80.957,718.444C90.012,763.867,108.123,854.713,136.693,900.135C165.264,945.558,204.294,945.558,243.325,945.558C282.356,945.558,321.386,945.558,351.422,945.558C381.458,945.558,402.5,945.558,423.542,945.558C444.583,945.558,465.625,945.558,495.662,945.558C525.7,945.558,564.733,945.558,603.767,945.558C642.8,945.558,681.833,945.558,705.517,945.558C729.2,945.558,737.533,945.558,751.331,945.558C765.128,945.558,784.389,945.558,803.65,945.558C822.911,945.558,842.172,945.558,856.26,945.558C870.347,945.558,879.261,945.558,883.718,945.558L888.175,945.558"></path><path marker-end="url(#graph-2712_flowchart-v2-pointEnd)" style="" class="edge-thickness-normal edge-pattern-solid edge-thickness-normal edge-pattern-solid flowchart-link" id="L_gestione_interrupt_idt_0" d="M1072.742,945.558L1077.865,945.558C1082.989,945.558,1093.236,945.558,1105.362,945.558C1117.489,945.558,1131.494,945.558,1138.497,945.558L1145.5,945.558"></path><path marker-end="url(#graph-2712_flowchart-v2-pointEnd)" style="" class="edge-thickness-normal edge-pattern-solid edge-thickness-normal edge-pattern-solid flowchart-link" id="L_idt_isr_0" d="M1221.267,945.558L1228.936,945.558C1236.606,945.558,1251.944,945.558,1263.781,945.558C1275.617,945.558,1283.95,945.558,1304.512,945.558C1325.075,945.558,1357.867,945.558,1390.658,945.558C1423.45,945.558,1456.242,945.558,1477.833,940.968C1499.424,936.379,1509.814,927.199,1515.009,922.609L1520.204,918.019"></path><path marker-end="url(#graph-2712_flowchart-v2-pointEnd)" style="" class="edge-thickness-normal edge-pattern-solid edge-thickness-normal edge-pattern-solid flowchart-link" id="L_bios_bootstrap_0" d="M90.563,673.021L96.508,679.106C102.453,685.192,114.343,697.363,132.179,703.448C150.014,709.533,173.794,709.533,185.685,709.533L197.575,709.533"></path><path marker-end="url(#graph-2712_flowchart-v2-pointEnd)" style="" class="edge-thickness-normal edge-pattern-solid edge-thickness-normal edge-pattern-solid flowchart-link" id="L_bootstrap_kernel_0" d="M285.075,709.533L297.632,709.533C310.189,709.533,335.303,709.533,351.36,709.533C367.417,709.533,374.417,709.533,377.917,709.533L381.417,709.533"></path><path marker-end="url(#graph-2712_flowchart-v2-pointEnd)" style="" class="edge-thickness-normal edge-pattern-solid edge-thickness-normal edge-pattern-solid flowchart-link" id="L_kernel_gestione_memoria_0" d="M433.905,685.533L442.698,665.168C451.492,644.803,469.079,604.072,481.373,583.707C493.667,563.342,500.667,563.342,504.167,563.342L507.667,563.342"></path><path marker-end="url(#graph-2712_flowchart-v2-pointEnd)" style="" class="edge-thickness-normal edge-pattern-solid edge-thickness-normal edge-pattern-solid flowchart-link" id="L_kernel_init_userspace_0" d="M436.788,733.533L445.101,748.596C453.414,763.658,470.04,793.783,482.762,808.846C495.483,823.908,504.3,823.908,508.708,823.908L513.117,823.908"></path><path marker-end="url(#graph-2712_flowchart-v2-pointEnd)" style="" class="edge-thickness-normal edge-pattern-solid edge-thickness-normal edge-pattern-solid flowchart-link" id="L_init_userspace_shell_0" d="M690.417,823.908L695.492,823.908C700.567,823.908,710.717,823.908,719.958,823.908C729.2,823.908,737.533,823.908,750.937,714.425C764.341,604.943,782.815,385.977,792.052,276.494L801.289,167.011"></path><path marker-end="url(#graph-2712_flowchart-v2-pointEnd)" style="" class="edge-thickness-normal edge-pattern-solid edge-thickness-normal edge-pattern-solid flowchart-link" id="L_shell_interpretazione_comando_0" d="M836.433,139.025L840.6,139.025C844.767,139.025,853.1,139.025,860.767,139.025C868.433,139.025,875.433,139.025,878.933,139.025L882.433,139.025"></path><path marker-end="url(#graph-2712_flowchart-v2-pointEnd)" style="" class="edge-thickness-normal edge-pattern-solid edge-thickness-normal edge-pattern-solid flowchart-link" id="L_interpretazione_comando_programma_0" d="M1078.483,139.025L1082.65,139.025C1086.817,139.025,1095.15,139.025,1102.817,139.025C1110.483,139.025,1117.483,139.025,1120.983,139.025L1124.483,139.025"></path><path marker-end="url(#graph-2712_flowchart-v2-pointEnd)" style="" class="edge-thickness-normal edge-pattern-solid edge-thickness-normal edge-pattern-solid flowchart-link" id="L_programma_chiamata_interrupt_0" d="M1242.283,139.025L1246.45,139.025C1250.617,139.025,1258.95,139.025,1267.283,228.353C1275.617,317.681,1283.95,496.336,1291.617,585.664C1299.283,674.992,1306.283,674.992,1309.783,674.992L1313.283,674.992"></path></g><g class="edgeLabels"><g><rect style="stroke: none" class="background"></rect></g><g><rect style="stroke: none" class="background"></rect></g><g><rect style="stroke: none" class="background"></rect></g><g><rect style="stroke: none" class="background"></rect></g><g><rect style="stroke: none" class="background"></rect></g><g><rect style="stroke: none" class="background"></rect></g><g><rect style="stroke: none" class="background"></rect></g><g><rect style="stroke: none" class="background"></rect></g><g><rect style="stroke: none" class="background"></rect></g><g><rect style="stroke: none" class="background"></rect></g><g><rect style="stroke: none" class="background"></rect></g><g><rect style="stroke: none" class="background"></rect></g><g><rect style="stroke: none" class="background"></rect></g><g><rect style="stroke: none" class="background"></rect></g><g class="edgeLabel"><g transform="translate(0, 0)" class="label"><text y="-10.1"><tspan dy="1.1em" y="-0.1em" x="0" class="text-outer-tspan"></tspan></text></g></g><g class="edgeLabel"><g transform="translate(0, 0)" class="label"><text y="-10.1"><tspan dy="1.1em" y="-0.1em" x="0" class="text-outer-tspan"></tspan></text></g></g><g class="edgeLabel"><g transform="translate(0, 0)" class="label"><text y="-10.1"><tspan dy="1.1em" y="-0.1em" x="0" class="text-outer-tspan"></tspan></text></g></g><g class="edgeLabel"><g transform="translate(0, 0)" class="label"><text y="-10.1"><tspan dy="1.1em" y="-0.1em" x="0" class="text-outer-tspan"></tspan></text></g></g><g class="edgeLabel"><g transform="translate(0, 0)" class="label"><text y="-10.1"><tspan dy="1.1em" y="-0.1em" x="0" class="text-outer-tspan"></tspan></text></g></g><g class="edgeLabel"><g transform="translate(0, 0)" class="label"><text y="-10.1"><tspan dy="1.1em" y="-0.1em" x="0" class="text-outer-tspan"></tspan></text></g></g><g class="edgeLabel"><g transform="translate(0, 0)" class="label"><text y="-10.1"><tspan dy="1.1em" y="-0.1em" x="0" class="text-outer-tspan"></tspan></text></g></g><g class="edgeLabel"><g transform="translate(0, 0)" class="label"><text y="-10.1"><tspan dy="1.1em" y="-0.1em" x="0" class="text-outer-tspan"></tspan></text></g></g><g class="edgeLabel"><g transform="translate(0, 0)" class="label"><text y="-10.1"><tspan dy="1.1em" y="-0.1em" x="0" class="text-outer-tspan"></tspan></text></g></g><g class="edgeLabel"><g transform="translate(0, 0)" class="label"><text y="-10.1"><tspan dy="1.1em" y="-0.1em" x="0" class="text-outer-tspan"></tspan></text></g></g><g class="edgeLabel"><g transform="translate(0, 0)" class="label"><text y="-10.1"><tspan dy="1.1em" y="-0.1em" x="0" class="text-outer-tspan"></tspan></text></g></g><g class="edgeLabel"><g transform="translate(0, 0)" class="label"><text y="-10.1"><tspan dy="1.1em" y="-0.1em" x="0" class="text-outer-tspan"></tspan></text></g></g><g class="edgeLabel"><g transform="translate(0, 0)" class="label"><text y="-10.1"><tspan dy="1.1em" y="-0.1em" x="0" class="text-outer-tspan"></tspan></text></g></g><g class="edgeLabel"><g transform="translate(0, 0)" class="label"><text y="-10.1"><tspan dy="1.1em" y="-0.1em" x="0" class="text-outer-tspan"></tspan></text></g></g></g><g class="nodes"><g transform="translate(67.11666488647461, 649.0208368301392)" id="flowchart-bios-0" class="node default"><rect height="48" width="68.23333358764648" y="-24" x="-34.11666679382324" ry="5" rx="5" style="" class="basic label-container"></rect><g transform="translate(0, -9)" style="" class="label"><rect></rect><g><rect style="stroke: none" class="background"></rect><text style="" y="-10.1"><tspan dy="1.1em" y="-0.1em" x="0" class="text-outer-tspan"><tspan font-weight="normal" class="text-inner-tspan" font-style="normal">BIOS</tspan></tspan></text></g></g></g><g transform="translate(423.54166412353516, 709.5333366394043)" id="flowchart-kernel-1" class="node default"><rect height="48" width="76.25" y="-24" x="-38.125" ry="5" rx="5" style="" class="basic label-container"></rect><g transform="translate(0, -9)" style="" class="label"><rect></rect><g><rect style="stroke: none" class="background"></rect><text style="" y="-10.1"><tspan dy="1.1em" y="-0.1em" x="0" class="text-outer-tspan"><tspan font-weight="normal" class="text-inner-tspan" font-style="normal">Kernel</tspan></tspan></text></g></g></g><g transform="translate(1185.3833312988281, 945.5583381652832)" id="flowchart-idt-2" class="node default"><g style="" class="basic label-container"><path style="" fill-rule="evenodd" fill="#ECECFF" stroke-width="0" stroke="none" d="M-27.883333206176758 -24 L35.88333320617676 -24 L35.88333320617676 24 L-35.88333320617676 24 L-35.88333320617676 -24 L-27.883333206176758 -24 L-27.883333206176758 24"></path><path style="" fill="none" stroke-width="1.3" stroke="#9370DB" d="M-27.883333206176758 -24 C-13.294730612382484 -24, 1.2938719814117903 -24, 35.88333320617676 -24 M-27.883333206176758 -24 C-3.7486921893071816 -24, 20.385948827562395 -24, 35.88333320617676 -24 M35.88333320617676 -24 C35.88333320617676 -8.519461713437728, 35.88333320617676 6.961076573124544, 35.88333320617676 24 M35.88333320617676 -24 C35.88333320617676 -7.967219187525114, 35.88333320617676 8.065561624949773, 35.88333320617676 24 M35.88333320617676 24 C20.15694301729034 24, 4.4305528284039255 24, -35.88333320617676 24 M35.88333320617676 24 C14.86063067515813 24, -6.162071855860496 24, -35.88333320617676 24 M-35.88333320617676 24 C-35.88333320617676 11.759224753178248, -35.88333320617676 -0.48155049364350333, -35.88333320617676 -24 M-35.88333320617676 24 C-35.88333320617676 11.159214220515132, -35.88333320617676 -1.6815715589697362, -35.88333320617676 -24 M-35.88333320617676 -24 C-34.00884394292879 -24, -32.134354679680825 -24, -27.883333206176758 -24 M-35.88333320617676 -24 C-33.40957856717291 -24, -30.935823928169064 -24, -27.883333206176758 -24 M-27.883333206176758 -24 C-27.883333206176758 -5.867982910721889, -27.883333206176758 12.264034178556223, -27.883333206176758 24 M-27.883333206176758 -24 C-27.883333206176758 -8.078561911468691, -27.883333206176758 7.842876177062617, -27.883333206176758 24 M-27.883333206176758 24 C-27.883333206176758 7.87529258783832, -27.883333206176758 -8.24941482432336, -27.883333206176758 -24 M-27.883333206176758 24 C-27.883333206176758 12.497411982023264, -27.883333206176758 0.9948239640465282, -27.883333206176758 -24"></path></g><g transform="translate(4,-10.500000357627869)" style="" class="label"><rect></rect><g><rect style="stroke: none" class="background"></rect><text style="" y="-10.1"><tspan dy="1.1em" y="-0.1em" x="0" class="text-outer-tspan"><tspan font-weight="normal" class="text-inner-tspan" font-style="normal">IDT</tspan></tspan></text></g></g></g><g transform="translate(1550.3666648864746, 891.3708381652832)" id="flowchart-isr-4" class="node default"><g style="" class="basic label-container"><path style="" fill-rule="evenodd" fill="#ECECFF" stroke-width="0" stroke="none" d="M-28.333333015441895 -24 L36.333333015441895 -24 L36.333333015441895 24 L-36.333333015441895 24 L-36.333333015441895 -24 L-28.333333015441895 -24 L-28.333333015441895 24"></path><path style="" fill="none" stroke-width="1.3" stroke="#9370DB" d="M-28.333333015441895 -24 C-15.194412948687132 -24, -2.05549288193237 -24, 36.333333015441895 -24 M-28.333333015441895 -24 C-15.22380855953344 -24, -2.1142841036249855 -24, 36.333333015441895 -24 M36.333333015441895 -24 C36.333333015441895 -6.331407796740649, 36.333333015441895 11.337184406518702, 36.333333015441895 24 M36.333333015441895 -24 C36.333333015441895 -7.60811640392911, 36.333333015441895 8.78376719214178, 36.333333015441895 24 M36.333333015441895 24 C15.962745579332367 24, -4.407841856777161 24, -36.333333015441895 24 M36.333333015441895 24 C13.706061624373504 24, -8.921209766694886 24, -36.333333015441895 24 M-36.333333015441895 24 C-36.333333015441895 6.0901542620052425, -36.333333015441895 -11.819691475989515, -36.333333015441895 -24 M-36.333333015441895 24 C-36.333333015441895 7.38739280311734, -36.333333015441895 -9.22521439376532, -36.333333015441895 -24 M-36.333333015441895 -24 C-33.14451745448523 -24, -29.955701893528563 -24, -28.333333015441895 -24 M-36.333333015441895 -24 C-33.655586711668576 -24, -30.977840407895265 -24, -28.333333015441895 -24 M-28.333333015441895 -24 C-28.333333015441895 -12.787057495323246, -28.333333015441895 -1.5741149906464926, -28.333333015441895 24 M-28.333333015441895 -24 C-28.333333015441895 -9.979010998333623, -28.333333015441895 4.041978003332755, -28.333333015441895 24 M-28.333333015441895 24 C-28.333333015441895 12.0106648794792, -28.333333015441895 0.021329758958401612, -28.333333015441895 -24 M-28.333333015441895 24 C-28.333333015441895 7.686273740351801, -28.333333015441895 -8.627452519296398, -28.333333015441895 -24"></path></g><g transform="translate(4,-10.500000357627869)" style="" class="label"><rect></rect><g><rect style="stroke: none" class="background"></rect><text style="" y="-10.1"><tspan dy="1.1em" y="-0.1em" x="0" class="text-outer-tspan"><tspan font-weight="normal" class="text-inner-tspan" font-style="normal">ISR</tspan></tspan></text></g></g></g><g transform="translate(243.3249969482422, 417.1416702270508)" id="flowchart-memcheck-6" class="node default"><circle cy="0" cx="0" r="92.09166717529297" style="" class="basic label-container"></circle><g transform="translate(0, -9)" style="" class="label"><rect></rect><g><rect style="stroke: none" class="background"></rect><text style="" y="-10.1"><tspan dy="1.1em" y="-0.1em" x="0" class="text-outer-tspan"><tspan font-weight="normal" class="text-inner-tspan" font-style="normal">Controllo</tspan><tspan font-weight="normal" class="text-inner-tspan" font-style="normal"> della</tspan><tspan font-weight="normal" class="text-inner-tspan" font-style="normal"> memoria</tspan></tspan></text></g></g></g><g transform="translate(243.3249969482422, 588.508337020874)" id="flowchart-post-7" class="node default"><circle cy="0" cx="0" r="29.274999618530273" style="" class="basic label-container"></circle><g transform="translate(0, -9)" style="" class="label"><rect></rect><g><rect style="stroke: none" class="background"></rect><text style="" y="-10.1"><tspan dy="1.1em" y="-0.1em" x="0" class="text-outer-tspan"><tspan font-weight="normal" class="text-inner-tspan" font-style="normal">POST</tspan></tspan></text></g></g></g><g transform="translate(243.3249969482422, 709.5333366394043)" id="flowchart-bootstrap-8" class="node default"><circle cy="0" cx="0" r="41.75" style="" class="basic label-container"></circle><g transform="translate(0, -9)" style="" class="label"><rect></rect><g><rect style="stroke: none" class="background"></rect><text style="" y="-10.1"><tspan dy="1.1em" y="-0.1em" x="0" class="text-outer-tspan"><tspan font-weight="normal" class="text-inner-tspan" font-style="normal">Bootstrap</tspan></tspan></text></g></g></g><g transform="translate(982.4583282470703, 945.5583381652832)" id="flowchart-gestione_interrupt-9" class="node default"><circle cy="0" cx="0" r="90.28333282470703" style="" class="basic label-container"></circle><g transform="translate(0, -9)" style="" class="label"><rect></rect><g><rect style="stroke: none" class="background"></rect><text style="" y="-10.1"><tspan dy="1.1em" y="-0.1em" x="0" class="text-outer-tspan"><tspan font-weight="normal" class="text-inner-tspan" font-style="normal">Gestione</tspan><tspan font-weight="normal" class="text-inner-tspan" font-style="normal"> degli</tspan><tspan font-weight="normal" class="text-inner-tspan" font-style="normal"> interrupt</tspan></tspan></text></g></g></g><g transform="translate(603.7666625976562, 563.3416690826416)" id="flowchart-gestione_memoria-10" class="node default"><circle cy="0" cx="0" r="92.0999984741211" style="" class="basic label-container"></circle><g transform="translate(0, -9)" style="" class="label"><rect></rect><g><rect style="stroke: none" class="background"></rect><text style="" y="-10.1"><tspan dy="1.1em" y="-0.1em" x="0" class="text-outer-tspan"><tspan font-weight="normal" class="text-inner-tspan" font-style="normal">Gestione</tspan><tspan font-weight="normal" class="text-inner-tspan" font-style="normal"> della</tspan><tspan font-weight="normal" class="text-inner-tspan" font-style="normal"> memoria</tspan></tspan></text></g></g></g><g transform="translate(603.7666625976562, 823.9083366394043)" id="flowchart-init_userspace-11" class="node default"><circle cy="0" cx="0" r="86.6500015258789" style="" class="basic label-container"></circle><g transform="translate(0, -17.799999237060547)" style="" class="label"><rect></rect><g><rect style="stroke: none" class="background"></rect><text style="" y="-10.1"><tspan dy="1.1em" y="-0.1em" x="0" class="text-outer-tspan"><tspan font-weight="normal" class="text-inner-tspan" font-style="normal">Inizializzazione</tspan><tspan font-weight="normal" class="text-inner-tspan" font-style="normal"> spazio</tspan></tspan><tspan dy="1.1em" y="1em" x="0" class="text-outer-tspan"><tspan font-weight="normal" class="text-inner-tspan" font-style="normal">utente</tspan></tspan></text></g></g></g><g transform="translate(1390.658332824707, 674.9916706085205)" id="flowchart-chiamata_interrupt-12" class="node default"><circle cy="0" cx="0" r="73.375" style="" class="basic label-container"></circle><g transform="translate(0, -9)" style="" class="label"><rect></rect><g><rect style="stroke: none" class="background"></rect><text style="" y="-10.1"><tspan dy="1.1em" y="-0.1em" x="0" class="text-outer-tspan"><tspan font-weight="normal" class="text-inner-tspan" font-style="normal">Chiamata</tspan><tspan font-weight="normal" class="text-inner-tspan" font-style="normal"> interrupt</tspan></tspan></text></g></g></g><g transform="translate(803.6499938964844, 139.0250015258789)" id="flowchart-shell-30" class="node default"><rect height="48" width="65.56666564941406" y="-24" x="-32.78333282470703" ry="5" rx="5" style="" class="basic label-container"></rect><g transform="translate(0, -9)" style="" class="label"><rect></rect><g><rect style="stroke: none" class="background"></rect><text style="" y="-10.1"><tspan dy="1.1em" y="-0.1em" x="0" class="text-outer-tspan"><tspan font-weight="normal" class="text-inner-tspan" font-style="normal">Shell</tspan></tspan></text></g></g></g><g transform="translate(1185.3833312988281, 139.0250015258789)" id="flowchart-programma-31" class="node default"><rect height="48" width="113.80000305175781" y="-24" x="-56.900001525878906" ry="5" rx="5" style="" class="basic label-container"></rect><g transform="translate(0, -9)" style="" class="label"><rect></rect><g><rect style="stroke: none" class="background"></rect><text style="" y="-10.1"><tspan dy="1.1em" y="-0.1em" x="0" class="text-outer-tspan"><tspan font-weight="normal" class="text-inner-tspan" font-style="normal">Programma</tspan></tspan></text></g></g></g><g transform="translate(982.4583282470703, 139.0250015258789)" id="flowchart-interpretazione_comando-32" class="node default"><circle cy="0" cx="0" r="96.0250015258789" style="" class="basic label-container"></circle><g transform="translate(0, -9)" style="" class="label"><rect></rect><g><rect style="stroke: none" class="background"></rect><text style="" y="-10.1"><tspan dy="1.1em" y="-0.1em" x="0" class="text-outer-tspan"><tspan font-weight="normal" class="text-inner-tspan" font-style="normal">Interpretazione</tspan><tspan font-weight="normal" class="text-inner-tspan" font-style="normal"> comando</tspan></tspan></text></g></g></g></g></g></g></g></svg>